{
    "accessors" : [
        {
            "bufferView" : 0, 
            "componentType" : 5123, 
            "count" : 1656, 
            "max" : [
                1108
            ], 
            "min" : [
                0
            ], 
            "type" : "SCALAR"
        }, 
        {
            "bufferView" : 1, 
            "componentType" : 5126, 
            "count" : 1109, 
            "max" : [
                1.4729161262512207, 
                1.7615622282028198, 
                4.0952887535095215
            ], 
            "min" : [
                -1.4112685918807983, 
                -1.9409977197647095, 
                -3.0229220390319824
            ], 
            "type" : "VEC3"
        }, 
        {
            "bufferView" : 2, 
            "componentType" : 5126, 
            "count" : 1109, 
            "max" : [
                0.9981383681297302, 
                0.99981689453125, 
                0.9962462186813354
            ], 
            "min" : [
                -0.9985350966453552, 
                -0.99981689453125, 
                -0.9989623427391052
            ], 
            "type" : "VEC3"
        }, 
        {
            "bufferView" : 3, 
            "componentType" : 5126, 
            "count" : 1109, 
            "max" : [
                0.9993470311164856, 
                0.9999623894691467, 
                0.9982130527496338, 
                1.0
            ], 
            "min" : [
                -0.9993468523025513, 
                -0.999599277973175, 
                -0.9992455840110779, 
                -1.0
            ], 
            "type" : "VEC4"
        }, 
        {
            "bufferView" : 4, 
            "componentType" : 5126, 
            "count" : 1109, 
            "max" : [
                2.0727105140686035, 
                1.000133916051709
            ], 
            "min" : [
                -0.3459318280220032, 
                -25.97029685974121
            ], 
            "type" : "VEC2"
        }, 
        {
            "bufferView" : 5, 
            "componentType" : 5123, 
            "count" : 28227, 
            "max" : [
                12156
            ], 
            "min" : [
                0
            ], 
            "type" : "SCALAR"
        }, 
        {
            "bufferView" : 6, 
            "componentType" : 5126, 
            "count" : 12157, 
            "max" : [
                2.1397061347961426, 
                2.4261817932128906, 
                3.5970494747161865
            ], 
            "min" : [
                -2.098587989807129, 
                -2.5684025287628174, 
                -3.5264034271240234
            ], 
            "type" : "VEC3"
        }, 
        {
            "bufferView" : 7, 
            "componentType" : 5126, 
            "count" : 12157, 
            "max" : [
                0.9983214735984802, 
                0.9989928603172302, 
                0.9998779296875
            ], 
            "min" : [
                -0.999786376953125, 
                -0.999847412109375, 
                -0.999969482421875
            ], 
            "type" : "VEC3"
        }, 
        {
            "bufferView" : 8, 
            "componentType" : 5126, 
            "count" : 12157, 
            "max" : [
                0.9998244047164917, 
                0.9997892379760742, 
                0.991936445236206, 
                1.0
            ], 
            "min" : [
                -0.9997445344924927, 
                -0.9998769760131836, 
                -0.9986441731452942, 
                -1.0
            ], 
            "type" : "VEC4"
        }, 
        {
            "bufferView" : 9, 
            "componentType" : 5126, 
            "count" : 12157, 
            "max" : [
                0.9999130964279175, 
                1.0006000000284985
            ], 
            "min" : [
                -0.007439999841153622, 
                -0.002107381820678711
            ], 
            "type" : "VEC2"
        }
    ], 
    "asset" : {
        "generator" : "Khronos Blender glTF 2.0 exporter", 
        "version" : "2.0"
    }, 
    "bufferViews" : [
        {
            "buffer" : 0, 
            "byteLength" : 3312, 
            "byteOffset" : 0, 
            "target" : 34963
        }, 
        {
            "buffer" : 0, 
            "byteLength" : 13308, 
            "byteOffset" : 3312, 
            "target" : 34962
        }, 
        {
            "buffer" : 0, 
            "byteLength" : 13308, 
            "byteOffset" : 16620, 
            "target" : 34962
        }, 
        {
            "buffer" : 0, 
            "byteLength" : 17744, 
            "byteOffset" : 29928, 
            "target" : 34962
        }, 
        {
            "buffer" : 0, 
            "byteLength" : 8872, 
            "byteOffset" : 47672, 
            "target" : 34962
        }, 
        {
            "buffer" : 0, 
            "byteLength" : 56454, 
            "byteOffset" : 56544, 
            "target" : 34963
        }, 
        {
            "buffer" : 0, 
            "byteLength" : 145884, 
            "byteOffset" : 113000, 
            "target" : 34962
        }, 
        {
            "buffer" : 0, 
            "byteLength" : 145884, 
            "byteOffset" : 258884, 
            "target" : 34962
        }, 
        {
            "buffer" : 0, 
            "byteLength" : 194512, 
            "byteOffset" : 404768, 
            "target" : 34962
        }, 
        {
            "buffer" : 0, 
            "byteLength" : 97256, 
            "byteOffset" : 599280, 
            "target" : 34962
        }
    ], 
    "buffers" : [
        {
            "byteLength" : 696536, 
            "uri" : "Forest Tree.bin"
        }
    ], 
    "materials" : [
        {
            "doubleSided" : true, 
            "name" : "DB2X2_L01", 
            "pbrMetallicRoughness" : {
                "baseColorFactor" : [
                    0.12741178274154663, 
                    0.49855855107307434, 
                    0.024720696732401848, 
                    1.0
                ], 
                "metallicFactor" : 0.4145454168319702, 
                "roughnessFactor" : 0.5054545402526855
            }
        }, 
        {
            "doubleSided" : true, 
            "name" : "Trank_bark", 
            "pbrMetallicRoughness" : {
                "baseColorFactor" : [
                    0.24274449050426483, 
                    0.12085121124982834, 
                    0.07213306427001953, 
                    1.0
                ], 
                "metallicFactor" : 0.411149799823761, 
                "roughnessFactor" : 0.5435539484024048
            }
        }
    ], 
    "meshes" : [
        {
            "name" : "g2", 
            "primitives" : [
                {
                    "attributes" : {
                        "NORMAL" : 2, 
                        "POSITION" : 1, 
                        "TANGENT" : 3, 
                        "TEXCOORD_0" : 4
                    }, 
                    "indices" : 0, 
                    "material" : 1
                }, 
                {
                    "attributes" : {
                        "NORMAL" : 7, 
                        "POSITION" : 6, 
                        "TANGENT" : 8, 
                        "TEXCOORD_0" : 9
                    }, 
                    "indices" : 5, 
                    "material" : 0
                }
            ]
        }
    ], 
    "nodes" : [
        {
            "mesh" : 0, 
            "name" : "g2", 
            "rotation" : [
                0.7071068286895752, 
                0.0, 
                -0.0, 
                0.7071067094802856
            ]
        }
    ], 
    "scene" : 0, 
    "scenes" : [
        {
            "name" : "Scene", 
            "nodes" : [
                0
            ]
        }
    ]
}
